{
	"asset":{
		"version":"2.0",
		"generator":"Maxon Cinema 4D 2023.2.2 (#200000219)"
	},
	"scenes":[{
		"nodes":[0,
		1]
	}],
	"nodes":[{
		"translation":[-0.8596535325050354,
		-0.5980829000473023,
		0.0019656906370073559],
		"name":"CS @ FSU",
		"mesh":0,
		"rotation":[0.0,
		0.0,
		0.0,
		-1.0],
		"scale":[1.0,
		1.0,
		1.0]
	},
	{
		"translation":[-0.4298267662525177,
		0.9656742215156555,
		0.0009828453185036779],
		"name":"Justin Schilleman",
		"mesh":1,
		"rotation":[0.0,
		0.0,
		0.0,
		-1.0],
		"scale":[1.0,
		1.0,
		1.0]
	}],
	"meshes":[{
		"name":"CS @ FSU",
		"primitives":[{
			"attributes":{
				"POSITION":1,
				"NORMAL":2,
				"TEXCOORD_0":3
			},
			"indices":0,
			"material":0
		}]
	},
	{
		"name":"Justin Schilleman",
		"primitives":[{
			"attributes":{
				"POSITION":5,
				"NORMAL":6,
				"TEXCOORD_0":7
			},
			"indices":4,
			"material":1
		}]
	}],
	"accessors":[{
		"bufferView":0,
		"byteOffset":0,
		"type":"SCALAR",
		"componentType":5123,
		"count":30936,
		"min":[0],
		"max":[10718]
	},
	{
		"bufferView":1,
		"byteOffset":0,
		"type":"VEC3",
		"componentType":5126,
		"count":10719,
		"min":[-1.8112410306930543,
		-0.5256474018096924,
		-1.579872727394104],
		"max":[3.037820816040039,
		0.5179700255393982,
		-0.23506462574005128]
	},
	{
		"bufferView":1,
		"byteOffset":12,
		"type":"VEC3",
		"componentType":5126,
		"count":10719,
		"min":[-0.9998469948768616,
		-0.9908737540245056,
		-0.9904002547264099],
		"max":[0.9998207092285156,
		0.990875780582428,
		0.9903549551963806]
	},
	{
		"bufferView":1,
		"byteOffset":24,
		"type":"VEC2",
		"componentType":5126,
		"count":10719,
		"min":[0.0,
		-0.20451843738555909],
		"max":[1.4661117792129517,
		1.0]
	},
	{
		"bufferView":2,
		"byteOffset":0,
		"type":"SCALAR",
		"componentType":5123,
		"count":166875,
		"min":[0],
		"max":[41105]
	},
	{
		"bufferView":3,
		"byteOffset":0,
		"type":"VEC3",
		"componentType":5126,
		"count":41106,
		"min":[-4.764308929443359,
		-1.2791916131973267,
		-2.367269992828369],
		"max":[5.273862838745117,
		2.277503490447998,
		-0.16969668865203858]
	},
	{
		"bufferView":3,
		"byteOffset":12,
		"type":"VEC3",
		"componentType":5126,
		"count":41106,
		"min":[-0.9997711181640625,
		-0.9999972581863403,
		-0.9999428391456604],
		"max":[0.9999626278877258,
		0.999996542930603,
		0.9998302459716797]
	},
	{
		"bufferView":3,
		"byteOffset":24,
		"type":"VEC2",
		"componentType":5126,
		"count":41106,
		"min":[0.0,
		-0.0234375],
		"max":[1.427480936050415,
		1.0]
	}],
	"bufferViews":[{
		"buffer":0,
		"byteOffset":0,
		"byteLength":61872,
		"target":34963
	},
	{
		"buffer":0,
		"byteOffset":61872,
		"byteLength":343008,
		"target":34962,
		"byteStride":32
	},
	{
		"buffer":1,
		"byteOffset":0,
		"byteLength":333750,
		"target":34963
	},
	{
		"buffer":1,
		"byteOffset":333752,
		"byteLength":1315392,
		"target":34962,
		"byteStride":32
	}],
	"buffers":[{
		"uri":"data:application/octet-stream;base64,",
		"byteLength":404880
	},
	{
		"uri":"data:application/octet-stream;base64,",
		"byteLength":1649144
	}],
	"materials":[{
		"pbrMetallicRoughness":{
			"baseColorFactor":[0.9280575539568345,
			0.9280575539568345,
			0.9280575539568345,
			1.0],
			"metallicFactor":0.15,
			"roughnessFactor":0.21
		},
		"emissiveFactor":[0.0,
		0.0,
		0.0],
		"alphaMode":"OPAQUE",
		"doubleSided":false,
		"name":"White"
	},
	{
		"pbrMetallicRoughness":{
			"baseColorFactor":[0.5180000000000001,
			0.74,
			0.0,
			1.0],
			"metallicFactor":0.15,
			"roughnessFactor":0.21
		},
		"emissiveFactor":[0.0,
		0.0,
		0.0],
		"alphaMode":"OPAQUE",
		"doubleSided":false,
		"name":"Green"
	}]
}