{
	"asset":{
		"version":"2.0",
		"generator":"Maxon Cinema 4D 2023.2.2 (#200000219)"
	},
	"scenes":[{
		"nodes":[0]
	}],
	"nodes":[{
		"name":"Title Text",
		"translation":[0.0,
		0.3273853361606598,
		0.0],
		"rotation":[0.0,
		0.0,
		0.0,
		-1.0],
		"scale":[1.0,
		1.0,
		1.0],
		"children":[1,
		2]
	},
	{
		"name":"Title Text-White",
		"mesh":0
	},
	{
		"name":"Title Text-Green",
		"mesh":1
	}],
	"meshes":[{
		"name":"Title Text-White",
		"primitives":[{
			"attributes":{
				"POSITION":1,
				"NORMAL":2,
				"TEXCOORD_0":3
			},
			"indices":0,
			"material":0
		}]
	},
	{
		"name":"Title Text-Green",
		"primitives":[{
			"attributes":{
				"POSITION":5,
				"NORMAL":6,
				"TEXCOORD_0":7
			},
			"indices":4,
			"material":1
		}]
	}],
	"accessors":[{
		"bufferView":0,
		"type":"SCALAR",
		"componentType":5123,
		"count":117540,
		"byteOffset":0,
		"min":[0],
		"max":[25718]
	},
	{
		"bufferView":1,
		"type":"VEC3",
		"componentType":5126,
		"count":25719,
		"byteOffset":0,
		"min":[-4.260034561157227,
		-2.5991432666778566,
		-0.783781886100769],
		"max":[4.260293006896973,
		-1.819266676902771,
		-0.02241404540836811]
	},
	{
		"bufferView":1,
		"type":"VEC3",
		"componentType":5126,
		"count":25719,
		"byteOffset":12,
		"min":[-0.9973800182342529,
		-0.9972264170646668,
		-0.9999995231628418],
		"max":[0.9974672794342041,
		0.9975747466087341,
		0.999997615814209]
	},
	{
		"bufferView":1,
		"type":"VEC2",
		"componentType":5126,
		"count":25719,
		"byteOffset":24,
		"min":[0.0,
		0.0],
		"max":[1.0,
		1.0]
	},
	{
		"bufferView":2,
		"type":"SCALAR",
		"componentType":5123,
		"count":117834,
		"byteOffset":0,
		"min":[0],
		"max":[28697]
	},
	{
		"bufferView":3,
		"type":"VEC3",
		"componentType":5126,
		"count":28698,
		"byteOffset":0,
		"min":[-5.696860313415527,
		-1.5957635641098023,
		-2.539119243621826],
		"max":[5.69302225112915,
		2.152085304260254,
		0.06841190904378891]
	},
	{
		"bufferView":3,
		"type":"VEC3",
		"componentType":5126,
		"count":28698,
		"byteOffset":12,
		"min":[-0.9996157884597778,
		-0.9999597668647766,
		-0.9999890327453613],
		"max":[0.9998887181282044,
		0.999943196773529,
		0.9999741315841675]
	},
	{
		"bufferView":3,
		"type":"VEC2",
		"componentType":5126,
		"count":28698,
		"byteOffset":24,
		"min":[0.0,
		0.0],
		"max":[1.0,
		1.0]
	}],
	"bufferViews":[{
		"buffer":0,
		"byteOffset":0,
		"byteLength":235080,
		"target":34963
	},
	{
		"buffer":0,
		"byteOffset":235080,
		"byteLength":823008,
		"target":34962,
		"byteStride":32
	},
	{
		"buffer":1,
		"byteOffset":0,
		"byteLength":235668,
		"target":34963
	},
	{
		"buffer":1,
		"byteOffset":235668,
		"byteLength":918336,
		"target":34962,
		"byteStride":32
	}],
	"buffers":[{
		"uri":"data:application/octet-stream;base64,",
		"byteLength":1058088
	},
	{
		"uri":"data:application/octet-stream;base64,",
		"byteLength":1154004
	}],
	"materials":[{
		"pbrMetallicRoughness":{
			"baseColorFactor":[1.0,
			1.0,
			1.0,
			1.0],
			"metallicFactor":0.5170000000000001,
			"roughnessFactor":0.2309999999999996
		},
		"emissiveFactor":[0.0,
		0.0,
		0.0],
		"alphaMode":"OPAQUE",
		"doubleSided":false,
		"name":"White"
	},
	{
		"pbrMetallicRoughness":{
			"baseColorFactor":[0.6858823529411765,
			1.0,
			0.0,
			1.0],
			"metallicFactor":0.40700000000000005,
			"roughnessFactor":0.22
		},
		"emissiveFactor":[0.18500000000000003,
		0.30000000000000007,
		0.0],
		"alphaMode":"OPAQUE",
		"doubleSided":false,
		"name":"Green"
	}]
}